<svg width="279" height="36" viewBox="0 0 279 36" fill="none" xmlns="http://www.w3.org/2000/svg">
<path d="M35.5064 28.86C33.6084 28.86 31.9444 28.509 30.5144 27.807C29.1104 27.079 28.0184 26.078 27.2384 24.804C26.4844 23.504 26.1074 21.996 26.1074 20.28V15.21C26.1074 13.494 26.4844 11.999 27.2384 10.725C28.0184 9.425 29.1104 8.424 30.5144 7.722C31.9444 6.994 33.6084 6.63 35.5064 6.63C37.4044 6.63 39.0424 6.994 40.4204 7.722C41.8244 8.424 42.9034 9.425 43.6574 10.725C44.4374 11.999 44.8274 13.494 44.8274 15.21V19.11H31.6844V20.28C31.6844 21.632 32.0094 22.659 32.6594 23.361C33.3094 24.037 34.2844 24.375 35.5844 24.375C36.4944 24.375 37.2224 24.219 37.7684 23.907C38.3404 23.595 38.7174 23.166 38.8994 22.62H44.6324C44.1644 24.492 43.0984 26 41.4344 27.144C39.7964 28.288 37.8204 28.86 35.5064 28.86ZM39.2504 16.107V15.132C39.2504 13.806 38.9384 12.792 38.3144 12.09C37.7164 11.388 36.7804 11.037 35.5064 11.037C34.2324 11.037 33.2704 11.401 32.6204 12.129C31.9964 12.857 31.6844 13.884 31.6844 15.21V15.795L39.6404 15.717L39.2504 16.107Z" fill="#ECEDEE"/>
<path d="M62.3622 28.47C60.8542 28.47 59.5282 28.158 58.3842 27.534C57.2402 26.884 56.3432 25.987 55.6932 24.843C55.0692 23.699 54.7572 22.373 54.7572 20.865V5.265H48.1272V0H60.6072V20.865C60.6072 21.567 60.8152 22.139 61.2312 22.581C61.6732 22.997 62.2452 23.205 62.9472 23.205H69.1872V28.47H62.3622Z" fill="#ECEDEE"/>
<path d="M82.237 28.86C80.339 28.86 78.688 28.509 77.284 27.807C75.88 27.079 74.788 26.078 74.008 24.804C73.254 23.504 72.877 21.996 72.877 20.28V15.21C72.877 13.494 73.254 11.999 74.008 10.725C74.788 9.425 75.88 8.424 77.284 7.722C78.688 6.994 80.339 6.63 82.237 6.63C84.161 6.63 85.812 6.994 87.19 7.722C88.594 8.424 89.673 9.425 90.427 10.725C91.207 11.999 91.597 13.494 91.597 15.21V20.28C91.597 21.996 91.207 23.504 90.427 24.804C89.673 26.078 88.594 27.079 87.19 27.807C85.812 28.509 84.161 28.86 82.237 28.86ZM82.237 23.79C83.381 23.79 84.252 23.491 84.85 22.893C85.448 22.269 85.747 21.398 85.747 20.28V15.21C85.747 14.066 85.448 13.195 84.85 12.597C84.252 11.999 83.381 11.7 82.237 11.7C81.119 11.7 80.248 11.999 79.624 12.597C79.026 13.195 78.727 14.066 78.727 15.21V20.28C78.727 21.398 79.026 22.269 79.624 22.893C80.248 23.491 81.119 23.79 82.237 23.79Z" fill="#ECEDEE"/>
<path d="M97.1197 28.47V7.02H102.58V11.115H104.062L102.385 13.611C102.385 11.297 102.918 9.555 103.984 8.385C105.05 7.215 106.61 6.63 108.664 6.63C111.03 6.63 112.863 7.345 114.163 8.775C115.489 10.205 116.152 12.22 116.152 14.82V16.575H109.912V15.21C109.912 14.04 109.587 13.13 108.937 12.48C108.313 11.83 107.468 11.505 106.402 11.505C105.284 11.505 104.426 11.83 103.828 12.48C103.256 13.13 102.97 14.04 102.97 15.21V28.47H97.1197Z" fill="#ECEDEE"/>
<path d="M123.429 35.49L126.354 27.417L118.32 7.02H124.677L127.914 16.38C128.148 17.082 128.382 17.94 128.616 18.954C128.876 19.942 129.071 20.748 129.201 21.372C129.331 20.748 129.513 19.942 129.747 18.954C130.007 17.94 130.254 17.082 130.488 16.38L133.608 7.02H139.692L129.552 35.49H123.429Z" fill="#ECEDEE"/>
<path d="M165.051 28.47L172.032 0H179.442L186.501 28.47H180.534L179.169 22.035H172.383L171.018 28.47H165.051ZM173.358 17.355H178.155L176.79 10.491C176.608 9.503 176.413 8.528 176.205 7.566C176.023 6.578 175.88 5.811 175.776 5.265C175.672 5.811 175.529 6.565 175.347 7.527C175.191 8.489 175.009 9.464 174.801 10.452L173.358 17.355Z" fill="#ECEDEE"/>
<path d="M193.584 35.49L196.509 27.417L188.475 7.02H194.832L198.069 16.38C198.303 17.082 198.537 17.94 198.771 18.954C199.031 19.942 199.226 20.748 199.356 21.372C199.486 20.748 199.668 19.942 199.902 18.954C200.162 17.94 200.409 17.082 200.643 16.38L203.763 7.02H209.847L199.707 35.49H193.584Z" fill="#ECEDEE"/>
<path d="M219.777 28.86C217.619 28.86 215.903 28.275 214.629 27.105C213.381 25.935 212.757 24.349 212.757 22.347C212.757 20.189 213.498 18.538 214.98 17.394C216.488 16.224 218.646 15.639 221.454 15.639H225.9V14.04C225.9 13.208 225.601 12.545 225.003 12.051C224.431 11.557 223.651 11.31 222.663 11.31C221.753 11.31 220.999 11.518 220.401 11.934C219.803 12.35 219.439 12.922 219.309 13.65H213.654C213.888 11.492 214.824 9.789 216.462 8.541C218.126 7.267 220.258 6.63 222.858 6.63C225.588 6.63 227.746 7.306 229.332 8.658C230.944 9.984 231.75 11.778 231.75 14.04V28.47H226.095V24.96H225.159L226.134 23.595C226.134 25.207 225.549 26.494 224.379 27.456C223.235 28.392 221.701 28.86 219.777 28.86ZM221.961 24.57C223.105 24.57 224.041 24.271 224.769 23.673C225.523 23.049 225.9 22.243 225.9 21.255V18.954H221.571C220.687 18.954 219.972 19.214 219.426 19.734C218.88 20.228 218.607 20.891 218.607 21.723C218.607 22.607 218.906 23.309 219.504 23.829C220.102 24.323 220.921 24.57 221.961 24.57Z" fill="#ECEDEE"/>
<path d="M249.44 28.47C247.932 28.47 246.606 28.158 245.462 27.534C244.318 26.884 243.421 25.987 242.771 24.843C242.147 23.699 241.835 22.373 241.835 20.865V5.265H235.205V0H247.685V20.865C247.685 21.567 247.893 22.139 248.309 22.581C248.751 22.997 249.323 23.205 250.025 23.205H256.265V28.47H249.44Z" fill="#ECEDEE"/>
<path d="M266.546 28.86C264.388 28.86 262.672 28.275 261.398 27.105C260.15 25.935 259.526 24.349 259.526 22.347C259.526 20.189 260.267 18.538 261.749 17.394C263.257 16.224 265.415 15.639 268.223 15.639H272.669V14.04C272.669 13.208 272.37 12.545 271.772 12.051C271.2 11.557 270.42 11.31 269.432 11.31C268.522 11.31 267.768 11.518 267.17 11.934C266.572 12.35 266.208 12.922 266.078 13.65H260.423C260.657 11.492 261.593 9.789 263.231 8.541C264.895 7.267 267.027 6.63 269.627 6.63C272.357 6.63 274.515 7.306 276.101 8.658C277.713 9.984 278.519 11.778 278.519 14.04V28.47H272.864V24.96H271.928L272.903 23.595C272.903 25.207 272.318 26.494 271.148 27.456C270.004 28.392 268.47 28.86 266.546 28.86ZM268.73 24.57C269.874 24.57 270.81 24.271 271.538 23.673C272.292 23.049 272.669 22.243 272.669 21.255V18.954H268.34C267.456 18.954 266.741 19.214 266.195 19.734C265.649 20.228 265.376 20.891 265.376 21.723C265.376 22.607 265.675 23.309 266.273 23.829C266.871 24.323 267.69 24.57 268.73 24.57Z" fill="#ECEDEE"/>
<path d="M0 4C0 2.34315 1.34315 1 3 1H18C19.6569 1 21 2.34315 21 4V15H0V4Z" fill="#54D173"/>
<path d="M0 4C0 2.34315 1.34315 1 3 1H18C19.6569 1 21 2.34315 21 4V15H0V4Z" stroke="#54D173"/>
<path d="M0 15H21V26.5C21 28.1569 19.6569 29.5 18 29.5H16C14.3431 29.5 13 28.1569 13 26.5V21.25C13 20.0074 11.9926 19 10.75 19C9.50736 19 8.5 20.0074 8.5 21.25V26.5C8.5 28.1569 7.15685 29.5 5.5 29.5H3C1.34315 29.5 0 28.1569 0 26.5V15Z" fill="#C191FF"/>
<path d="M0 15H21V26.5C21 28.1569 19.6569 29.5 18 29.5H16C14.3431 29.5 13 28.1569 13 26.5V21.25C13 20.0074 11.9926 19 10.75 19C9.50736 19 8.5 20.0074 8.5 21.25V26.5C8.5 28.1569 7.15685 29.5 5.5 29.5H3C1.34315 29.5 0 28.1569 0 26.5V15Z" stroke="#54D173"/>
</svg>
